<?xml version="1.0" standalone="no"?>
<!DOCTYPE svg PUBLIC "-//W3C//DTD SVG 20010904//EN"
 "http://www.w3.org/TR/2001/REC-SVG-20010904/DTD/svg10.dtd">
<svg version="1.0" xmlns="http://www.w3.org/2000/svg"
 width="57.000000pt" height="57.000000pt" viewBox="0 0 57.000000 57.000000"
 preserveAspectRatio="xMidYMid meet">
<metadata>
Created by potrace 1.16, written by Peter Selinger 2001-2019
</metadata>
<g transform="translate(0.000000,57.000000) scale(0.100000,-0.100000)"
fill="#000000" stroke="none">
<path d="M217 513 c-21 -137 -40 -364 -32 -372 6 -5 22 -13 36 -16 29 -7 25
-18 45 115 3 22 10 40 14 40 42 0 55 -108 19 -154 -16 -20 -29 -26 -61 -26
-46 0 -102 30 -120 63 -11 21 -10 21 9 4 11 -9 23 -17 26 -17 13 0 7 46 -8 66
-8 10 -15 40 -15 66 0 39 6 54 30 81 29 34 40 67 21 67 -5 0 -24 -12 -42 -27
-29 -24 -30 -25 -18 -4 8 12 29 31 47 42 24 16 32 28 32 50 0 39 -18 37 -78
-10 -128 -102 -134 -284 -12 -394 46 -41 103 -67 149 -67 51 0 112 54 126 111
4 17 17 28 40 35 30 9 33 9 25 -5 -4 -9 -20 -26 -34 -38 -27 -24 -36 -73 -13
-73 23 0 97 70 118 112 29 56 34 124 16 189 -17 57 -69 129 -93 129 -23 0 -17
-55 11 -96 14 -20 25 -42 25 -48 0 -6 -7 0 -16 12 -17 24 -44 30 -44 9 0 -7 7
-22 15 -33 22 -29 18 -76 -10 -114 l-25 -34 0 50 c0 27 -7 59 -15 70 -13 19
-12 25 5 60 37 71 19 174 -32 188 -13 3 -48 6 -79 6 l-56 0 -6 -37z"/>
</g>
</svg>
